<svg height="1000.0pt" stroke-miterlimit="10" style="fill-rule:nonzero;clip-rule:evenodd;stroke-linecap:round;stroke-linejoin:round;" version="1.1" viewBox="0 0 2500 1000" width="2500.0pt" xml:space="preserve" xmlns="http://www.w3.org/2000/svg" xmlns:xlink="http://www.w3.org/1999/xlink">
<defs/>
<path d="M0 0L2500 0L2500 1000L0 1000L0 0Z" fill="none" fill-rule="nonzero" opacity="1" stroke="none"/>
<g id="Layer-1" transform="matrix(1 0 0 1 0 0)"/>
<g id="SvgjsG1007" transform="matrix(1 0 0 1 0 0)"/>
<g id="SvgjsG1008" transform="matrix(1 0 0 1 0 0)">
<g opacity="1">
<path d="M807.888 893.086C754.661 893.086 753.223 661.323 754.661 462.214C755.381 365.049 758.977 210.54 732.364 210.54C708.627 210.54 665.47 307.705 633.822 449.471C605.051 577.697 581.314 709.906 586.349 739.374C589.946 760.081 578.437 760.081 576.279 740.967C571.244 699.552 589.946 556.194 617.278 444.692C645.33 329.209 689.207 194.611 730.206 194.611C781.275 194.611 776.24 390.535 774.801 459.028C771.924 610.351 769.766 877.158 808.608 877.158C846.73 877.158 924.412 724.242 959.657 541.858C984.113 414.428 994.902 201.779 987.709 114.967C986.99 100.632 999.937 107.8 1000.66 118.153C1010.01 227.265 1001.38 396.11 971.166 553.804C932.324 761.674 856.08 893.086 807.888 893.086Z" fill="#ddcabb" fill-rule="nonzero" opacity="1" stroke="#ddcabb" stroke-linecap="butt" stroke-linejoin="round" stroke-width="12"/>
<text fill="#ddcabb" font-family="var(--font-arial-rounded), Arial Rounded MT Bold, sans-serif" font-size="424" opacity="1" stroke="#ddcabb" stroke-linecap="butt" stroke-linejoin="round" stroke-width="12" text-anchor="start" transform="matrix(1 0 0 1 1021.36 252.617)" x="0" y="0">
<tspan x="0" y="401.307">uelit</tspan>
</text>
</g>
</g>
</svg>
