<svg height="96.0pt" stroke-miterlimit="10" style="fill-rule:nonzero;clip-rule:evenodd;stroke-linecap:round;stroke-linejoin:round;" version="1.1" viewBox="0 0 96 96" width="96.0pt" xml:space="preserve" xmlns="http://www.w3.org/2000/svg" xmlns:xlink="http://www.w3.org/1999/xlink">
<defs/>
<path d="M0 0L96 0L96 96L0 96L0 0Z" fill="none" fill-rule="nonzero" opacity="1" stroke="none"/>
<g id="Layer-1" transform="matrix(1 0 0 1 0 0)"/>
<g id="SvgjsG1007" transform="matrix(1 0 0 1 0 0)">
<path d="M50.1794 90.8929C43.7483 90.8929 43.5745 65.6033 43.7483 43.8769C43.8352 33.2743 44.2698 16.4146 41.0543 16.4146C38.1864 16.4146 32.972 27.0171 29.1482 42.4864C25.6719 56.4782 22.804 70.9046 23.4124 74.1201C23.8469 76.3796 22.4564 76.3796 22.1957 74.2939C21.5874 69.7748 23.8469 54.1317 27.1493 41.9649C30.5387 29.3636 35.8399 14.6765 40.7935 14.6765C46.9639 14.6765 46.3555 36.0553 46.1817 43.5292C45.8341 60.0413 45.5734 89.1548 50.2663 89.1548C54.8723 89.1548 64.2581 72.4689 68.5165 52.5674C71.4713 38.6625 72.7749 15.4587 71.9058 5.98592C71.8189 4.42161 73.3832 5.20377 73.4701 6.33354C74.5999 18.2396 73.557 36.6637 69.907 53.871C65.2141 76.5534 56.0021 90.8929 50.1794 90.8929Z" fill="#ddcabb" fill-rule="nonzero" opacity="1" stroke="#ddcabb" stroke-linecap="butt" stroke-linejoin="round" stroke-width="2.01"/>
</g>
<g id="SvgjsG1008" transform="matrix(1 0 0 1 0 0)"/>
</svg>
